# File created by Blade
# Date/Time:  Wed Apr 08 17:39:41 2015
#---------------------------------------------------------
:version 1.10
:name HOM
:units
  mass 1.0
  length 1.000000
  angle deg
:documentation
     Acclaim Skeleton File
:root
   axis xyz
   order TX TY TZ RX RY RZ
   position 0.000000 0.000000 0.000000
   orientation 0 0 0
:bonedata
   begin
      id 1
      name Spine_dum
      direction 0.000000 1.000000 0.000000
      length 5.893853
      axis 0.0 0.0 0.0 xyz
   end
   begin
      id 2
      name LeftUpLeg_dum
      direction 1.000000 0.000000 0.000000
      length 3.697939
      axis 0.0 0.0 0.0 xyz
   end
   begin
      id 3
      name RightUpLeg_dum
      direction -1.000000 0.000000 0.000000
      length 3.697939
      axis 0.0 0.0 0.0 xyz
   end
   begin
      id 4
      name Spine
      direction 0.000000 1.000000 0.000000
      length 0.000000
      axis 0.0 0.0 0.0 xyz
      dof rx ry rz
   end
   begin
      id 5
      name Spine_dum1
      direction 0.000000 1.000000 0.000000
      length 16.447146
      axis 0.0 0.0 0.0 xyz
   end
   begin
      id 6
      name Spine_dum2
      direction 0.000000 1.000000 0.000000
      length 10.900383
      axis 0.0 0.0 0.0 xyz
   end
   begin
      id 7
      name Spine_dum3
      direction 0.000000 1.000000 0.000000
      length 10.900383
      axis 0.0 0.0 0.0 xyz
   end
   begin
      id 8
      name Head
      direction 0.000000 1.000000 0.000000
      length 4.527550
      axis 0.0 0.0 0.0 xyz
      dof rx ry rz
   end
   begin
      id 9
      name LeftShoulder
      direction 1.000000 0.000000 0.000000
      length 8.219464
      axis 0.0 0.0 -90.0 xyz
      dof rx ry rz
   end
   begin
      id 10
      name LeftArm
      direction 1.000000 0.000000 0.000000
      length 11.094937
      axis 0.0 0.0 -90.0 xyz
      dof rx ry rz
   end
   begin
      id 11
      name LeftForeArm
      direction 1.000000 0.000000 0.000000
      length 9.103875
      axis 0.0 0.0 -90.0 xyz
      dof ry rz rx
   end
   begin
      id 12
      name LeftHand
      direction 0.000000 0.000000 0.000000
      length 0.000000
      axis 0.0 0.0 -90.0 xyz
      dof rx ry rz
   end
   begin
      id 13
      name LeftHand_dum1
      direction 0.000000 0.000000 0.000000
      length 0.000000
      axis 0.0 0.0 -90.0 xyz
   end
   begin
      id 14
      name LeftHand_dum2
      direction 1.000000 0.000000 0.000000
      length 3.937000
      axis 0.0 0.0 -90.0 xyz
   end
   begin
      id 15
      name LeftHandThumb1
      direction 0.000000 0.000000 1.000000
      length 3.937000
      axis 0.0 0.0 -90.0 xyz
      dof rx rz ry
   end
   begin
      id 16
      name RightShoulder
      direction -1.000000 0.000000 0.000000
      length 8.219464
      axis 0.0 0.0 90.0 xyz
      dof rx ry rz
   end
   begin
      id 17
      name RightArm
      direction -1.000000 0.000000 0.000000
      length 11.094937
      axis 0.0 0.0 90.0 xyz
      dof rx ry rz
   end
   begin
      id 18
      name RightForeArm
      direction -1.000000 0.000000 0.000000
      length 9.103875
      axis 0.0 0.0 90.0 xyz
      dof ry rz rx
   end
   begin
      id 19
      name RightHand
      direction 0.000000 0.000000 0.000000
      length 0.000000
      axis 0.0 0.0 90.0 xyz
      dof rx ry rz
   end
   begin
      id 20
      name RightHand_dum1
      direction 0.000000 0.000000 0.000000
      length 0.000000
      axis 0.0 0.0 90.0 xyz
   end
   begin
      id 21
      name RightHand_dum2
      direction -1.000000 0.000000 0.000000
      length 3.937000
      axis 0.0 0.0 90.0 xyz
   end
   begin
      id 22
      name RightHandThumb1
      direction 0.000000 0.000000 1.000000
      length 3.937000
      axis 0.0 0.0 90.0 xyz
      dof rx rz ry
   end
   begin
      id 23
      name LeftUpLeg
      direction 0.000000 -1.000000 0.000000
      length 16.181467
      axis 0.0 0.0 0.0 xyz
      dof rx ry rz
   end
   begin
      id 24
      name LeftLeg
      direction 0.000000 -1.000000 0.000000
      length 16.501392
      axis 0.0 0.0 0.0 xyz
      dof rx ry rz
   end
   begin
      id 25
      name LeftFoot
      direction 0.000000 -0.258819 0.965926
      length 6.408245
      axis 15.0 0.0 0.0 xyz
      dof rx ry rz
   end
   begin
      id 26
      name LeftToeBase
      direction 0.000000 0.000000 1.000000
      length 2.952750
      axis 0.0 0.0 0.0 xyz
      dof rx ry rz
   end
   begin
      id 27
      name RightUpLeg
      direction 0.000000 -1.000000 0.000000
      length 16.181467
      axis 0.0 0.0 0.0 xyz
      dof rx ry rz
   end
   begin
      id 28
      name RightLeg
      direction 0.000000 -1.000000 0.000000
      length 16.501392
      axis 0.0 0.0 0.0 xyz
      dof rx ry rz
   end
   begin
      id 29
      name RightFoot
      direction 0.000000 -0.258819 0.965926
      length 6.408245
      axis 15.0 0.0 0.0 xyz
      dof rx ry rz
   end
   begin
      id 30
      name RightToeBase
      direction 0.000000 0.000000 1.000000
      length 2.952750
      axis 0.0 0.0 0.0 xyz
      dof rx ry rz
   end
:hierarchy
   begin
      root Spine_dum LeftUpLeg_dum RightUpLeg_dum
      Spine_dum Spine
      LeftUpLeg_dum LeftUpLeg
      RightUpLeg_dum RightUpLeg
      Spine Spine_dum1 Spine_dum2 Spine_dum3
      Spine_dum1 Head
      Spine_dum2 LeftShoulder
      Spine_dum3 RightShoulder
      LeftShoulder LeftArm
      LeftArm LeftForeArm
      LeftForeArm LeftHand
      LeftHand LeftHand_dum1 LeftHand_dum2
      LeftHand_dum1 LeftHandThumb1
      RightShoulder RightArm
      RightArm RightForeArm
      RightForeArm RightHand
      RightHand RightHand_dum1 RightHand_dum2
      RightHand_dum1 RightHandThumb1
      LeftUpLeg LeftLeg
      LeftLeg LeftFoot
      LeftFoot LeftToeBase
      RightUpLeg RightLeg
      RightLeg RightFoot
      RightFoot RightToeBase
   end

# File created by Blade
# Date/Time:  Wed Apr 08 17:39:35 2015
# Frame Rate: 120.000 fps
#------------------------------------------------------
:FULLY-SPECIFIED
:DEGREES
1308
root 4.170081 36.517371 4.067119 -12.172945 -73.601783 -388.461254
Spine 46.543408 -2.287095 1.649451
Head 31.271186 8.279808 13.780914
LeftShoulder -8.300620 14.918036 15.601188
LeftArm 20.818045 17.646523 -79.723146
LeftForeArm 17.988693 0.000000 23.292159
LeftHand -12.599659 -0.000000 -11.349879
LeftHandThumb1 -26.253704 0.000000 33.147579
RightShoulder -30.364936 -44.899980 11.397954
RightArm 56.781257 -18.612762 54.421664
RightForeArm -0.327398 -0.000000 21.097311
RightHand 0.013837 -0.000000 15.797242
RightHandThumb1 -24.326973 -0.000000 -32.862282
LeftUpLeg 47.633111 11.454226 12.789261
LeftLeg 7.045681 -0.000000 -0.000000
LeftFoot -13.727062 8.102408 -2.090838
LeftToeBase 0.750283 -0.000000 -0.000000
RightUpLeg -15.602545 -17.388411 7.387044
RightLeg 60.353476 -0.000000 -0.000000
RightFoot -14.224216 -22.160886 12.214038
RightToeBase -9.618793 -0.000000 0.000000
1309
root 4.198736 36.492782 4.070745 -12.151136 -73.757810 -387.901812
Spine 45.911095 -2.017712 1.584966
Head 31.427502 8.160988 13.861478
LeftShoulder -8.277610 14.956019 15.527240
LeftArm 20.824902 17.684112 -79.605382
LeftForeArm 17.962616 -0.000000 23.364037
LeftHand -12.633624 -0.000000 -11.386368
LeftHandThumb1 -26.253704 0.000000 33.147579
RightShoulder -30.422959 -44.933494 11.578358
RightArm 56.801888 -18.532739 54.229521
RightForeArm -0.558888 -0.000000 21.054826
RightHand -0.236749 0.000000 16.414988
RightHandThumb1 -24.326973 -0.000000 -32.862282
LeftUpLeg 47.021989 11.730814 12.469327
LeftLeg 7.148673 -0.000000 -0.000000
LeftFoot -13.835969 8.232770 -2.021114
LeftToeBase 0.886982 -0.000000 -0.000000
RightUpLeg -16.379441 -15.770632 7.209587
RightLeg 60.816337 -0.000000 -0.000000
RightFoot -13.463177 -22.268995 12.223728
RightToeBase -7.776796 -0.000000 0.000000
1310
root 4.227712 36.468575 4.075221 -12.136988 -73.947028 -387.346243
Spine 45.289724 -1.718787 1.531451
Head 31.585214 8.057507 13.931990
LeftShoulder -8.238268 15.002390 15.470865
LeftArm 20.822015 17.526667 -79.615420
LeftForeArm 18.100334 0.000000 23.373394
LeftHand -12.575853 -0.000000 -11.503644
LeftHandThumb1 -26.253704 0.000000 33.147579
RightShoulder -30.499056 -44.992451 11.754441
RightArm 56.882658 -18.508081 53.941745
RightForeArm -0.688424 0.000000 21.019651
RightHand -0.519285 -0.000000 16.934675
RightHandThumb1 -24.326973 -0.000000 -32.862282
LeftUpLeg 46.424084 12.049228 12.174155
LeftLeg 7.265247 -0.000000 -0.000000
LeftFoot -13.934487 8.360948 -1.932234
LeftToeBase 0.946676 -0.000000 -0.000000
RightUpLeg -17.153789 -14.163348 6.997941
RightLeg 61.355158 -0.000000 -0.000000
RightFoot -12.670433 -22.304571 12.557872
RightToeBase -6.598329 -0.000000 0.000000
1311
root 4.241619 36.458735 4.076725 -11.944414 -74.037453 -387.238679
Spine 44.942563 -1.570080 1.555592
Head 31.703894 7.959170 13.977135
LeftShoulder -8.241019 15.033622 15.414395
LeftArm 20.827749 17.558540 -79.541547
LeftForeArm 18.047419 -0.000000 23.442864
LeftHand -12.587023 -0.000000 -11.538993
LeftHandThumb1 -26.253704 0.000000 33.147579
RightShoulder -30.503371 -45.041689 11.847976
RightArm 56.965837 -18.492050 53.685746
RightForeArm -0.858636 0.000000 20.959764
RightHand -0.789566 -0.000000 17.575234
RightHandThumb1 -24.326973 -0.000000 -32.862282
LeftUpLeg 46.086332 12.175498 12.042264
LeftLeg 7.344932 -0.000000 -0.000000
LeftFoot -13.998211 8.458182 -1.895022
LeftToeBase 0.996272 -0.000000 -0.000000
RightUpLeg -17.579287 -12.683734 6.796611
RightLeg 61.875415 -0.000000 -0.000000
RightFoot -11.576144 -22.314931 12.691066
RightToeBase -5.774887 -0.000000 0.000000
1312
root 4.268528 36.436832 4.078069 -11.842251 -74.216156 -386.790336
Spine 44.333348 -1.291587 1.512956
Head 31.872401 7.843513 14.035336
LeftShoulder -8.217143 15.088241 15.354136
LeftArm 20.815746 17.504888 -79.494663
LeftForeArm 18.081432 -0.000000 23.503351
LeftHand -12.573194 -0.000000 -11.579718
LeftHandThumb1 -26.253704 0.000000 33.147579
RightShoulder -30.503708 -45.057054 11.944824
RightArm 57.021115 -18.524356 53.408382
RightForeArm -1.009444 -0.000000 20.852684
RightHand -0.924557 -0.000000 18.576028
RightHandThumb1 -24.326973 -0.000000 -32.862282
LeftUpLeg 45.493236 12.456513 11.767576
LeftLeg 7.465943 -0.000000 -0.000000
LeftFoot -14.102980 8.598226 -1.804198
LeftToeBase 1.088712 -0.000000 -0.000000
RightUpLeg -18.341639 -11.129769 6.575067
RightLeg 62.562429 -0.000000 -0.000000
RightFoot -10.169819 -22.402769 12.926344
RightToeBase -5.285699 -0.000000 0.000000
1313
root 4.299004 36.411848 4.078819 -11.732469 -74.423127 -386.258418
Spine 43.614671 -0.974501 1.453383
Head 32.076558 7.725701 14.117587
LeftShoulder -8.190878 15.172184 15.272350
LeftArm 20.824529 17.429226 -79.436706
LeftForeArm 18.095220 -0.000000 23.541944
LeftHand -12.565973 -0.000000 -11.645152
LeftHandThumb1 -26.253704 0.000000 33.147579
RightShoulder -30.521495 -45.121602 12.093692
RightArm 57.080444 -18.505357 53.153227
RightForeArm -1.172926 -0.000000 20.759192
RightHand -1.184463 -0.000000 19.136978
RightHandThumb1 -24.326973 -0.000000 -32.862282
LeftUpLeg 44.799966 12.780220 11.450224
LeftLeg 7.608615 -0.000000 -0.000000
LeftFoot -14.212683 8.750316 -1.709426
LeftToeBase 1.144096 -0.000000 -0.000000
RightUpLeg -19.235142 -9.580783 6.328786
RightLeg 63.360232 -0.000000 -0.000000
RightFoot -8.443093 -22.552856 13.292644
RightToeBase -4.691367 -0.000000 0.000000
